<?xml version="1.0" encoding="UTF-8"?>
<!DOCTYPE svg PUBLIC "-//W3C//DTD SVG 1.1//EN" "http://www.w3.org/Graphics/SVG/1.1/DTD/svg11.dtd">
<svg xmlns="http://www.w3.org/2000/svg" version="1.1" width="94px" height="94px" style="shape-rendering:geometricPrecision; text-rendering:geometricPrecision; image-rendering:optimizeQuality; fill-rule:evenodd; clip-rule:evenodd" xmlns:xlink="http://www.w3.org/1999/xlink">
<g><path style="opacity:0.007" fill="#f0f3fa" d="M 39.5,6.5 C 44.3158,5.35034 49.3158,5.18368 54.5,6C 49.5111,6.49926 44.5111,6.66593 39.5,6.5 Z"/></g>
<g><path style="opacity:0.668" fill="#f2f4f9" d="M 58.5,8.5 C 59.5,9.16667 60.5,9.83333 61.5,10.5C 56.5276,9.5784 51.5276,9.41173 46.5,10C 45.3255,12.5155 45.6588,15.0155 47.5,17.5C 46.9747,18.1924 46.3081,18.6924 45.5,19C 46.8333,19.3333 48.1667,19.6667 49.5,20C 47.2922,20.1909 45.2922,20.6909 43.5,21.5C 43.1667,21.5 42.8333,21.5 42.5,21.5C 41.7375,20.7321 40.7375,20.2321 39.5,20C 40.3081,19.6924 40.9747,19.1924 41.5,18.5C 40.0441,16.1988 39.7108,13.8655 40.5,11.5C 39.7579,10.7132 38.9246,10.0465 38,9.5C 34.3912,11.3854 30.8912,13.3854 27.5,15.5C 26.0357,16.4054 24.7024,16.4054 23.5,15.5C 33.9161,7.69163 45.5828,5.3583 58.5,8.5 Z"/></g>
<g><path style="opacity:0.012" fill="#eff2fa" d="M 58.5,8.5 C 58.8966,7.47498 59.5632,7.30831 60.5,8C 59.9056,8.46434 59.2389,8.63101 58.5,8.5 Z"/></g>
<g><path style="opacity:0.998" fill="#f6f7fa" d="M 42.5,21.5 C 38.5799,22.1266 35.2466,23.7933 32.5,26.5C 30.9382,26.7329 29.6049,27.3995 28.5,28.5C 26.3385,26.6278 26.3385,24.4611 28.5,22C 28.1081,20.9895 27.4415,20.4895 26.5,20.5C 29.3551,18.5337 32.3551,17.867 35.5,18.5C 36.3857,17.675 36.719,16.675 36.5,15.5C 33.304,16.1115 30.304,16.1115 27.5,15.5C 30.8912,13.3854 34.3912,11.3854 38,9.5C 38.9246,10.0465 39.7579,10.7132 40.5,11.5C 39.7108,13.8655 40.0441,16.1988 41.5,18.5C 40.9747,19.1924 40.3081,19.6924 39.5,20C 40.7375,20.2321 41.7375,20.7321 42.5,21.5 Z"/></g>
<g><path style="opacity:0.999" fill="#e4e8f1" d="M 61.5,10.5 C 65.1168,11.6417 68.4502,13.3084 71.5,15.5C 76.2905,19.9475 80.2905,24.9475 83.5,30.5C 83.5,30.8333 83.5,31.1667 83.5,31.5C 82.5041,31.5858 81.6708,31.2524 81,30.5C 78.4401,25.8842 75.2735,21.7176 71.5,18C 68.5147,17.1324 65.5147,16.7991 62.5,17C 60.8446,18.4443 60.178,20.2776 60.5,22.5C 59.1667,22.5 57.8333,22.5 56.5,22.5C 55.1667,22.5 53.8333,22.5 52.5,22.5C 49.7131,21.5233 46.7131,21.19 43.5,21.5C 45.2922,20.6909 47.2922,20.1909 49.5,20C 48.1667,19.6667 46.8333,19.3333 45.5,19C 46.3081,18.6924 46.9747,18.1924 47.5,17.5C 45.6588,15.0155 45.3255,12.5155 46.5,10C 51.5276,9.41173 56.5276,9.5784 61.5,10.5 Z"/></g>
<g><path style="opacity:0.012" fill="#f2f5f8" d="M 23.5,12.5 C 24.8333,13.1667 24.8333,13.1667 23.5,12.5 Z"/></g>
<g><path style="opacity:0.016" fill="#e6ecf5" d="M 71.5,14.5 C 72.8333,15.1667 72.8333,15.1667 71.5,14.5 Z"/></g>
<g><path style="opacity:0.992" fill="#f4f5f7" d="M 23.5,15.5 C 24.7024,16.4054 26.0357,16.4054 27.5,15.5C 30.304,16.1115 33.304,16.1115 36.5,15.5C 36.719,16.675 36.3857,17.675 35.5,18.5C 32.3551,17.867 29.3551,18.5337 26.5,20.5C 27.4415,20.4895 28.1081,20.9895 28.5,22C 26.3385,24.4611 26.3385,26.6278 28.5,28.5C 26.9019,30.6979 25.5686,33.0313 24.5,35.5C 24.1667,35.5 23.8333,35.5 23.5,35.5C 22.6942,34.0028 22.0276,32.3361 21.5,30.5C 21.7093,29.914 22.0426,29.414 22.5,29C 21.1279,28.5983 19.7946,28.0983 18.5,27.5C 16.3585,28.9518 14.0252,29.9518 11.5,30.5C 12.9855,26.863 14.9855,23.5296 17.5,20.5C 18.1667,20.5 18.5,20.1667 18.5,19.5C 19.1667,19.5 19.5,19.1667 19.5,18.5C 20.1667,18.5 20.5,18.1667 20.5,17.5C 21.1667,17.5 21.5,17.1667 21.5,16.5C 22.1667,16.1667 22.8333,15.8333 23.5,15.5 Z"/></g>
<g><path style="opacity:0.004" fill="#ebeef4" d="M 74.5,16.5 C 73.8333,15.1667 73.8333,15.1667 74.5,16.5 Z"/></g>
<g><path style="opacity:0.004" fill="#f6f5f7" d="M 21.5,16.5 C 20.8333,16.5 20.5,16.8333 20.5,17.5C 19.8333,17.5 19.5,17.8333 19.5,18.5C 18.8333,18.5 18.5,18.8333 18.5,19.5C 17.8333,19.5 17.5,19.8333 17.5,20.5C 16.8817,18.3364 17.8817,16.6697 20.5,15.5C 21.1067,15.6236 21.44,15.9569 21.5,16.5 Z"/></g>
<g><path style="opacity:0.008" fill="#eaedf4" d="M 74.5,16.5 C 75.1667,16.5 75.5,16.8333 75.5,17.5C 75.1667,17.1667 74.8333,16.8333 74.5,16.5 Z"/></g>
<g><path style="opacity:0.008" fill="#eaedf3" d="M 75.5,17.5 C 76.1667,17.5 76.5,17.8333 76.5,18.5C 76.1667,18.1667 75.8333,17.8333 75.5,17.5 Z"/></g>
<g><path style="opacity:0.008" fill="#eaedf3" d="M 76.5,18.5 C 77.8333,19.1667 77.8333,19.1667 76.5,18.5 Z"/></g>
<g><path style="opacity:0.999" fill="#d2d7e6" d="M 83.5,31.5 C 83.5,31.8333 83.5,32.1667 83.5,32.5C 79.8527,32.3784 77.0194,30.7118 75,27.5C 73.3528,28.14 71.5195,28.14 69.5,27.5C 67.9623,27.4534 66.9623,28.1201 66.5,29.5C 65.8333,29.1667 65.1667,28.8333 64.5,28.5C 62.1162,26.1153 59.4495,24.1153 56.5,22.5C 57.8333,22.5 59.1667,22.5 60.5,22.5C 60.178,20.2776 60.8446,18.4443 62.5,17C 65.5147,16.7991 68.5147,17.1324 71.5,18C 75.2735,21.7176 78.4401,25.8842 81,30.5C 81.6708,31.2524 82.5041,31.5858 83.5,31.5 Z"/></g>
<g><path style="opacity:1" fill="#18dbfd" d="M 39.5,33.5 C 38.5,33.5 37.5,33.5 36.5,33.5C 35.0687,32.2196 34.4021,30.5529 34.5,28.5C 33.1266,28.3433 31.7932,28.51 30.5,29C 28.5998,31.3353 26.5998,33.502 24.5,35.5C 25.5686,33.0313 26.9019,30.6979 28.5,28.5C 29.6049,27.3995 30.9382,26.7329 32.5,26.5C 35.9209,24.6243 39.5876,23.6243 43.5,23.5C 43.1379,27.2592 41.8046,30.5925 39.5,33.5 Z"/></g>
<g><path style="opacity:1" fill="#19c4f8" d="M 42.5,21.5 C 42.8333,21.5 43.1667,21.5 43.5,21.5C 46.7131,21.19 49.7131,21.5233 52.5,22.5C 56.4889,25.4914 56.4889,28.6581 52.5,32C 49.3054,32.1805 46.3054,32.6805 43.5,33.5C 42.5,33.8333 41.8333,34.5 41.5,35.5C 40.5,35.1667 39.8333,34.5 39.5,33.5C 41.8046,30.5925 43.1379,27.2592 43.5,23.5C 39.5876,23.6243 35.9209,24.6243 32.5,26.5C 35.2466,23.7933 38.5799,22.1266 42.5,21.5 Z"/></g>
<g><path style="opacity:0.972" fill="#ededed" d="M 23.5,35.5 C 23.1667,36.8333 22.8333,38.1667 22.5,39.5C 21.6993,41.0418 21.366,42.7085 21.5,44.5C 16.8878,42.5236 12.5544,40.1902 8.5,37.5C 9.56637,35.2986 10.233,32.9653 10.5,30.5C 10.8333,30.5 11.1667,30.5 11.5,30.5C 14.0252,29.9518 16.3585,28.9518 18.5,27.5C 19.7946,28.0983 21.1279,28.5983 22.5,29C 22.0426,29.414 21.7093,29.914 21.5,30.5C 22.0276,32.3361 22.6942,34.0028 23.5,35.5 Z"/></g>
<g><path style="opacity:0.02" fill="#f2f2f3" d="M 10.5,30.5 C 10.1667,30.5 9.83333,30.5 9.5,30.5C 9.83333,27.8333 10.1667,27.8333 10.5,30.5 Z"/></g>
<g><path style="opacity:0.008" fill="#dbdfe9" d="M 83.5,30.5 C 83.369,29.7611 83.5357,29.0944 84,28.5C 84.6917,29.4368 84.525,30.1034 83.5,30.5 Z"/></g>
<g><path style="opacity:0.008" fill="#f1f1f2" d="M 9.5,30.5 C 9.63101,31.2389 9.46434,31.9056 9,32.5C 8.30831,31.5632 8.47498,30.8966 9.5,30.5 Z"/></g>
<g><path style="opacity:1" fill="#10a0ec" d="M 52.5,22.5 C 53.8333,22.5 55.1667,22.5 56.5,22.5C 59.4495,24.1153 62.1162,26.1153 64.5,28.5C 62.6036,30.8368 61.2703,33.5035 60.5,36.5C 57.8333,35.8333 55.1667,35.1667 52.5,34.5C 49.6085,33.5975 46.6085,33.2641 43.5,33.5C 46.3054,32.6805 49.3054,32.1805 52.5,32C 56.4889,28.6581 56.4889,25.4914 52.5,22.5 Z"/></g>
<g><path style="opacity:0.998" fill="#c3c9d7" d="M 83.5,32.5 C 84.1098,33.391 84.4431,34.391 84.5,35.5C 83.9717,36.7206 83.305,37.8873 82.5,39C 79.9471,39.7611 77.4471,40.5944 75,41.5C 74.6667,41.1667 74.3333,40.8333 74,40.5C 73.79,42.0581 73.29,43.3915 72.5,44.5C 72.13,39.0975 70.13,34.4308 66.5,30.5C 66.5,30.1667 66.5,29.8333 66.5,29.5C 66.9623,28.1201 67.9623,27.4534 69.5,27.5C 71.5195,28.14 73.3528,28.14 75,27.5C 77.0194,30.7118 79.8527,32.3784 83.5,32.5 Z"/></g>
<g><path style="opacity:1" fill="#eaeeef" d="M 36.5,33.5 C 37.5,33.5 38.5,33.5 39.5,33.5C 39.8333,34.5 40.5,35.1667 41.5,35.5C 41.7475,37.8583 41.0808,39.8583 39.5,41.5C 38.0413,41.5674 36.7079,41.2341 35.5,40.5C 35.5,39.8333 35.1667,39.5 34.5,39.5C 34.2525,37.1417 34.9192,35.1417 36.5,33.5 Z"/></g>
<g><path style="opacity:0.012" fill="#c1c6d3" d="M 85.5,35.5 C 85.369,34.7611 85.5357,34.0944 86,33.5C 86.6917,34.4368 86.525,35.1034 85.5,35.5 Z"/></g>
<g><path style="opacity:1" fill="#1e2127" d="M 43.5,33.5 C 46.6085,33.2641 49.6085,33.5975 52.5,34.5C 53.795,35.4884 55.1283,36.4884 56.5,37.5C 57.6005,38.6049 58.2671,39.9382 58.5,41.5C 52.1667,42.8333 45.8333,42.8333 39.5,41.5C 41.0808,39.8583 41.7475,37.8583 41.5,35.5C 41.8333,34.5 42.5,33.8333 43.5,33.5 Z"/></g>
<g><path style="opacity:1" fill="#108ee3" d="M 64.5,28.5 C 65.1667,28.8333 65.8333,29.1667 66.5,29.5C 66.5,29.8333 66.5,30.1667 66.5,30.5C 65.9569,30.56 65.6236,30.8933 65.5,31.5C 67.5895,33.4445 68.2561,35.6112 67.5,38C 67.6301,39.0588 68.1301,39.8921 69,40.5C 69.8174,46.0164 69.6507,51.3497 68.5,56.5C 68.7261,53.7508 68.3928,51.0841 67.5,48.5C 65.4844,47.3058 63.4844,47.3058 61.5,48.5C 61.8396,44.8691 61.0063,41.5358 59,38.5C 58.3292,37.7476 57.4959,37.4142 56.5,37.5C 55.1283,36.4884 53.795,35.4884 52.5,34.5C 55.1667,35.1667 57.8333,35.8333 60.5,36.5C 61.2703,33.5035 62.6036,30.8368 64.5,28.5 Z"/></g>
<g><path style="opacity:1" fill="#20e9fd" d="M 36.5,33.5 C 34.9192,35.1417 34.2525,37.1417 34.5,39.5C 32.9891,41.4758 32.1558,43.8091 32,46.5C 29.3333,49.1667 26.6667,49.1667 24,46.5C 23.8138,43.9644 23.3138,41.631 22.5,39.5C 22.8333,38.1667 23.1667,36.8333 23.5,35.5C 23.8333,35.5 24.1667,35.5 24.5,35.5C 26.5998,33.502 28.5998,31.3353 30.5,29C 31.7932,28.51 33.1266,28.3433 34.5,28.5C 34.4021,30.5529 35.0687,32.2196 36.5,33.5 Z"/></g>
<g><path style="opacity:0.008" fill="#a8adbe" d="M 86.5,40.5 C 86.3433,39.1266 86.51,37.7932 87,36.5C 87.765,38.0657 87.5983,39.3991 86.5,40.5 Z"/></g>
<g><path style="opacity:1" fill="#227cda" d="M 66.5,30.5 C 70.13,34.4308 72.13,39.0975 72.5,44.5C 72.6323,47.5701 72.299,50.5701 71.5,53.5C 70.6939,56.4456 69.3605,59.1123 67.5,61.5C 67.1667,61.5 66.8333,61.5 66.5,61.5C 67.1667,59.8333 67.8333,58.1667 68.5,56.5C 69.6507,51.3497 69.8174,46.0164 69,40.5C 68.1301,39.8921 67.6301,39.0588 67.5,38C 68.2561,35.6112 67.5895,33.4445 65.5,31.5C 65.6236,30.8933 65.9569,30.56 66.5,30.5 Z"/></g>
<g><path style="opacity:0.008" fill="#dbdad8" d="M 7.5,40.5 C 6.40168,39.3991 6.23502,38.0657 7,36.5C 7.49001,37.7932 7.65668,39.1266 7.5,40.5 Z"/></g>
<g><path style="opacity:1" fill="#0b72ca" d="M 56.5,37.5 C 57.4959,37.4142 58.3292,37.7476 59,38.5C 61.0063,41.5358 61.8396,44.8691 61.5,48.5C 60.6083,51.9518 58.9416,54.9518 56.5,57.5C 52.5735,61.2256 47.9069,62.3923 42.5,61C 40.3645,60.1237 39.0312,58.6237 38.5,56.5C 47.5036,61.8554 54.3369,59.8554 59,50.5C 59.8045,47.3035 59.6378,44.3035 58.5,41.5C 58.2671,39.9382 57.6005,38.6049 56.5,37.5 Z"/></g>
<g><path style="opacity:1" fill="#0c0d0d" d="M 35.5,40.5 C 36.7079,41.2341 38.0413,41.5674 39.5,41.5C 45.8333,42.8333 52.1667,42.8333 58.5,41.5C 59.6378,44.3035 59.8045,47.3035 59,50.5C 54.3369,59.8554 47.5036,61.8554 38.5,56.5C 34.9967,52.9695 33.6634,48.6361 34.5,43.5C 34.5569,42.391 34.8902,41.391 35.5,40.5 Z"/></g>
<g><path style="opacity:0.01" fill="#9e9ea8" d="M 87.5,41.5 C 88.6408,44.6399 88.8075,47.9733 88,51.5C 87.5017,48.1832 87.335,44.8499 87.5,41.5 Z"/></g>
<g><path style="opacity:0.998" fill="#d2d1d0" d="M 8.5,37.5 C 12.5544,40.1902 16.8878,42.5236 21.5,44.5C 21.1936,47.3854 21.5269,50.0521 22.5,52.5C 22.5,53.1667 22.5,53.8333 22.5,54.5C 19.3117,54.3822 16.3117,53.5489 13.5,52C 10.8544,49.0965 8.8544,45.9299 7.5,42.5C 7.5,41.8333 7.5,41.1667 7.5,40.5C 8.40397,39.791 8.73731,38.791 8.5,37.5 Z"/></g>
<g><path style="opacity:1" fill="#acadbb" d="M 84.5,35.5 C 84.8333,35.5 85.1667,35.5 85.5,35.5C 85.5,37.1667 85.5,38.8333 85.5,40.5C 83.9926,48.3439 79.3259,52.6772 71.5,53.5C 72.299,50.5701 72.6323,47.5701 72.5,44.5C 73.29,43.3915 73.79,42.0581 74,40.5C 74.3333,40.8333 74.6667,41.1667 75,41.5C 77.4471,40.5944 79.9471,39.7611 82.5,39C 83.305,37.8873 83.9717,36.7206 84.5,35.5 Z"/></g>
<g><path style="opacity:0.005" fill="#c2c0bc" d="M 5.5,41.5 C 6.64084,44.6399 6.8075,47.9733 6,51.5C 5.50166,48.1832 5.33499,44.8499 5.5,41.5 Z"/></g>
<g><path style="opacity:1" fill="#1fcaf8" d="M 22.5,39.5 C 23.3138,41.631 23.8138,43.9644 24,46.5C 26.6667,49.1667 29.3333,49.1667 32,46.5C 32.1558,43.8091 32.9891,41.4758 34.5,39.5C 35.1667,39.5 35.5,39.8333 35.5,40.5C 34.8902,41.391 34.5569,42.391 34.5,43.5C 33.5233,46.2869 33.19,49.2869 33.5,52.5C 33.5,54.5 33.5,56.5 33.5,58.5C 27.101,59.5571 23.601,56.8904 23,50.5C 22.5357,51.0944 22.369,51.7611 22.5,52.5C 21.5269,50.0521 21.1936,47.3854 21.5,44.5C 21.366,42.7085 21.6993,41.0418 22.5,39.5 Z"/></g>
<g><path style="opacity:0.999" fill="#a9a3a8" d="M 85.5,40.5 C 85.8333,40.5 86.1667,40.5 86.5,40.5C 86.553,46.1956 86.2197,51.8623 85.5,57.5C 84.596,58.209 84.2627,59.209 84.5,60.5C 83.6618,60.8417 83.3284,61.5084 83.5,62.5C 82.6618,62.8417 82.3284,63.5084 82.5,64.5C 81.6618,64.8417 81.3284,65.5084 81.5,66.5C 80.6618,66.8417 80.3284,67.5084 80.5,68.5C 79.8333,68.5 79.5,68.8333 79.5,69.5C 78.0937,69.9731 77.427,70.9731 77.5,72.5C 76.8333,72.5 76.5,72.8333 76.5,73.5C 75.8333,73.5 75.5,73.8333 75.5,74.5C 74.8333,74.5 74.5,74.8333 74.5,75.5C 73.8333,75.5 73.5,75.8333 73.5,76.5C 72.8333,76.5 72.5,76.8333 72.5,77.5C 71.5084,77.3284 70.8417,77.6618 70.5,78.5C 70.1667,78.5 69.8333,78.5 69.5,78.5C 71.4324,74.9748 71.7657,71.3081 70.5,67.5C 69.2011,66.91 68.3678,65.91 68,64.5C 67.0471,66.3731 65.8804,66.7065 64.5,65.5C 65.5,64.1667 66.5,62.8333 67.5,61.5C 69.3605,59.1123 70.6939,56.4456 71.5,53.5C 79.3259,52.6772 83.9926,48.3439 85.5,40.5 Z"/></g>
<g><path style="opacity:0.007" fill="#aba3a5" d="M 86.5,53.5 C 87.5735,54.2506 87.7401,55.2506 87,56.5C 86.5172,55.552 86.3505,54.552 86.5,53.5 Z"/></g>
<g><path style="opacity:1" fill="#1baee9" d="M 68.5,56.5 C 67.8333,58.1667 67.1667,59.8333 66.5,61.5C 65.0384,62.4577 63.7051,63.6244 62.5,65C 56.6206,65.769 54.6206,63.269 56.5,57.5C 58.9416,54.9518 60.6083,51.9518 61.5,48.5C 63.4844,47.3058 65.4844,47.3058 67.5,48.5C 68.3928,51.0841 68.7261,53.7508 68.5,56.5 Z"/></g>
<g><path style="opacity:0.01" fill="#bcb5af" d="M 7.5,57.5 C 7.83333,57.5 8.16667,57.5 8.5,57.5C 8.16667,60.1667 7.83333,60.1667 7.5,57.5 Z"/></g>
<g><path style="opacity:0.012" fill="#aaa09f" d="M 85.5,57.5 C 86.8333,58.5 86.8333,59.5 85.5,60.5C 85.5,59.5 85.5,58.5 85.5,57.5 Z"/></g>
<g><path style="opacity:0.999" fill="#bcb6b2" d="M 7.5,42.5 C 8.8544,45.9299 10.8544,49.0965 13.5,52C 16.3117,53.5489 19.3117,54.3822 22.5,54.5C 23.6803,57.5396 25.347,60.2063 27.5,62.5C 29.5272,65.1939 31.8605,67.5272 34.5,69.5C 25.4815,71.0613 24.4815,74.8947 31.5,81C 32.745,81.7914 34.0783,82.2914 35.5,82.5C 36.8333,83.1667 38.1667,83.8333 39.5,84.5C 39.5,84.8333 39.5,85.1667 39.5,85.5C 38.8333,85.5 38.1667,85.5 37.5,85.5C 35.7857,84.2616 33.7857,83.595 31.5,83.5C 28.5695,81.7519 25.7361,79.7519 23,77.5C 21.1598,78.8331 20.6598,78.6665 21.5,77C 18.1268,73.7078 15.1268,70.2078 12.5,66.5C 12.6716,65.5084 12.3382,64.8417 11.5,64.5C 11.6716,63.5084 11.3382,62.8417 10.5,62.5C 10.2041,60.597 9.53747,58.9303 8.5,57.5C 8.16667,52.1667 7.83333,52.1667 7.5,57.5C 7.12678,52.699 7.12678,47.699 7.5,42.5 Z"/></g>
<g><path style="opacity:0.008" fill="#aaa09e" d="M 84.5,60.5 C 84.8333,60.5 85.1667,60.5 85.5,60.5C 85.6716,61.4916 85.3382,62.1583 84.5,62.5C 84.5,61.8333 84.5,61.1667 84.5,60.5 Z"/></g>
<g><path style="opacity:1" fill="#14a9ea" d="M 33.5,52.5 C 37.6038,55.7463 38.2705,59.5797 35.5,64C 34.2068,64.49 32.8734,64.6567 31.5,64.5C 30.2058,63.7101 29.0391,62.7101 28,61.5C 27.6012,61.7284 27.4346,62.0618 27.5,62.5C 25.347,60.2063 23.6803,57.5396 22.5,54.5C 22.5,53.8333 22.5,53.1667 22.5,52.5C 22.369,51.7611 22.5357,51.0944 23,50.5C 23.601,56.8904 27.101,59.5571 33.5,58.5C 33.5,56.5 33.5,54.5 33.5,52.5 Z"/></g>
<g><path style="opacity:0.012" fill="#b3aaa2" d="M 10.5,62.5 C 10.5,63.1667 10.5,63.8333 10.5,64.5C 9.16667,63.8333 9.16667,63.1667 10.5,62.5 Z"/></g>
<g><path style="opacity:0.008" fill="#a69a96" d="M 83.5,62.5 C 83.8333,62.5 84.1667,62.5 84.5,62.5C 84.6716,63.4916 84.3382,64.1583 83.5,64.5C 83.5,63.8333 83.5,63.1667 83.5,62.5 Z"/></g>
<g><path style="opacity:1" fill="#098adb" d="M 34.5,43.5 C 33.6634,48.6361 34.9967,52.9695 38.5,56.5C 39.0312,58.6237 40.3645,60.1237 42.5,61C 47.9069,62.3923 52.5735,61.2256 56.5,57.5C 54.6206,63.269 56.6206,65.769 62.5,65C 63.7051,63.6244 65.0384,62.4577 66.5,61.5C 66.8333,61.5 67.1667,61.5 67.5,61.5C 66.5,62.8333 65.5,64.1667 64.5,65.5C 62.5,66.8333 60.5,68.1667 58.5,69.5C 58.2648,68.9033 57.7648,68.5699 57,68.5C 47.6491,71.8545 39.1491,70.5212 31.5,64.5C 32.8734,64.6567 34.2068,64.49 35.5,64C 38.2705,59.5797 37.6038,55.7463 33.5,52.5C 33.19,49.2869 33.5233,46.2869 34.5,43.5 Z"/></g>
<g><path style="opacity:0.004" fill="#b2a8a1" d="M 10.5,64.5 C 10.8333,64.5 11.1667,64.5 11.5,64.5C 11.5,65.1667 11.5,65.8333 11.5,66.5C 10.6618,66.1583 10.3284,65.4916 10.5,64.5 Z"/></g>
<g><path style="opacity:0.012" fill="#a79995" d="M 82.5,64.5 C 82.8333,64.5 83.1667,64.5 83.5,64.5C 83.6716,65.4916 83.3382,66.1583 82.5,66.5C 82.5,65.8333 82.5,65.1667 82.5,64.5 Z"/></g>
<g><path style="opacity:1" fill="#357fd3" d="M 31.5,64.5 C 39.1491,70.5212 47.6491,71.8545 57,68.5C 57.7648,68.5699 58.2648,68.9033 58.5,69.5C 56.597,69.7959 54.9303,70.4625 53.5,71.5C 46.9563,73.0323 40.623,72.3656 34.5,69.5C 31.8605,67.5272 29.5272,65.1939 27.5,62.5C 27.4346,62.0618 27.6012,61.7284 28,61.5C 29.0391,62.7101 30.2058,63.7101 31.5,64.5 Z"/></g>
<g><path style="opacity:0.012" fill="#a59a93" d="M 81.5,66.5 C 81.8333,66.5 82.1667,66.5 82.5,66.5C 82.3147,67.1701 81.9813,67.1701 81.5,66.5 Z"/></g>
<g><path style="opacity:0.004" fill="#b0a49c" d="M 11.5,66.5 C 11.8333,66.5 12.1667,66.5 12.5,66.5C 12.1667,69.1667 11.8333,69.1667 11.5,66.5 Z"/></g>
<g><path style="opacity:0.997" fill="#b7b2b2" d="M 69.5,78.5 C 69.5,78.8333 69.5,79.1667 69.5,79.5C 68.5084,79.3284 67.8417,79.6618 67.5,80.5C 66.8333,80.5 66.5,80.8333 66.5,81.5C 65.5084,81.3284 64.8417,81.6618 64.5,82.5C 63.5084,82.3284 62.8417,82.6618 62.5,83.5C 62.1667,83.5 61.8333,83.5 61.5,83.5C 62.2423,81.5742 63.2423,79.7409 64.5,78C 61.584,74.8007 57.9173,73.1341 53.5,73C 56.0972,72.2208 56.0972,71.7208 53.5,71.5C 54.9303,70.4625 56.597,69.7959 58.5,69.5C 60.5,68.1667 62.5,66.8333 64.5,65.5C 65.8804,66.7065 67.0471,66.3731 68,64.5C 68.3678,65.91 69.2011,66.91 70.5,67.5C 71.7657,71.3081 71.4324,74.9748 69.5,78.5 Z"/></g>
<g><path style="opacity:0.012" fill="#a79b95" d="M 80.5,68.5 C 81.8333,69.1667 81.8333,69.1667 80.5,68.5 Z"/></g>
<g><path style="opacity:0.016" fill="#a69a92" d="M 79.5,69.5 C 79.8333,69.5 80.1667,69.5 80.5,69.5C 80.3147,70.1701 79.9813,70.1701 79.5,69.5 Z"/></g>
<g><path style="opacity:0.004" fill="#a9a099" d="M 78.5,71.5 C 79.8333,72.1667 79.8333,72.1667 78.5,71.5 Z"/></g>
<g><path style="opacity:0.012" fill="#a89d96" d="M 77.5,72.5 C 77.8333,72.5 78.1667,72.5 78.5,72.5C 78.3147,73.1701 77.9813,73.1701 77.5,72.5 Z"/></g>
<g><path style="opacity:0.998" fill="#c6c2c0" d="M 34.5,69.5 C 40.623,72.3656 46.9563,73.0323 53.5,71.5C 56.0972,71.7208 56.0972,72.2208 53.5,73C 57.9173,73.1341 61.584,74.8007 64.5,78C 63.2423,79.7409 62.2423,81.5742 61.5,83.5C 60.5084,83.3284 59.8417,83.6618 59.5,84.5C 58.209,84.2627 57.209,84.596 56.5,85.5C 50.8157,86.5737 45.149,86.5737 39.5,85.5C 39.5,85.1667 39.5,84.8333 39.5,84.5C 44.8993,84.691 50.2326,84.191 55.5,83C 56.1667,82.3333 56.8333,81.6667 57.5,81C 55.779,79.4728 53.779,78.4728 51.5,78C 45.8769,76.971 40.2102,76.471 34.5,76.5C 34.5172,78.5648 34.8505,80.5648 35.5,82.5C 34.0783,82.2914 32.745,81.7914 31.5,81C 24.4815,74.8947 25.4815,71.0613 34.5,69.5 Z"/></g>
<g><path style="opacity:0.012" fill="#a99c95" d="M 76.5,73.5 C 76.8333,73.5 77.1667,73.5 77.5,73.5C 77.3147,74.1701 76.9813,74.1701 76.5,73.5 Z"/></g>
<g><path style="opacity:0.016" fill="#aa9e96" d="M 75.5,74.5 C 75.8333,74.5 76.1667,74.5 76.5,74.5C 76.3147,75.1701 75.9813,75.1701 75.5,74.5 Z"/></g>
<g><path style="opacity:0.016" fill="#aba097" d="M 74.5,75.5 C 74.8333,75.5 75.1667,75.5 75.5,75.5C 75.3147,76.1701 74.9813,76.1701 74.5,75.5 Z"/></g>
<g><path style="opacity:0.012" fill="#aba198" d="M 73.5,76.5 C 73.8333,76.5 74.1667,76.5 74.5,76.5C 74.3147,77.1701 73.9813,77.1701 73.5,76.5 Z"/></g>
<g><path style="opacity:0.012" fill="#ada39c" d="M 72.5,77.5 C 72.8333,77.5 73.1667,77.5 73.5,77.5C 73.3147,78.1701 72.9813,78.1701 72.5,77.5 Z"/></g>
<g><path style="opacity:0.004" fill="#b0a59f" d="M 70.5,79.5 C 70.5,79.1667 70.5,78.8333 70.5,78.5C 71.1667,78.5 71.8333,78.5 72.5,78.5C 72.1583,79.3382 71.4916,79.6716 70.5,79.5 Z"/></g>
<g><path style="opacity:0.996" fill="#cecbca" d="M 39.5,84.5 C 38.1667,83.8333 36.8333,83.1667 35.5,82.5C 34.8505,80.5648 34.5172,78.5648 34.5,76.5C 40.2102,76.471 45.8769,76.971 51.5,78C 53.779,78.4728 55.779,79.4728 57.5,81C 56.8333,81.6667 56.1667,82.3333 55.5,83C 50.2326,84.191 44.8993,84.691 39.5,84.5 Z"/></g>
<g><path style="opacity:0.016" fill="#b0a79f" d="M 69.5,79.5 C 69.8333,79.5 70.1667,79.5 70.5,79.5C 70.3147,80.1701 69.9813,80.1701 69.5,79.5 Z"/></g>
<g><path style="opacity:0.008" fill="#b4aaa5" d="M 67.5,81.5 C 67.5,81.1667 67.5,80.8333 67.5,80.5C 68.1667,80.5 68.8333,80.5 69.5,80.5C 69.1583,81.3382 68.4916,81.6716 67.5,81.5 Z"/></g>
<g><path style="opacity:0.012" fill="#b6aea7" d="M 66.5,81.5 C 66.8333,81.5 67.1667,81.5 67.5,81.5C 67.3147,82.1701 66.9813,82.1701 66.5,81.5 Z"/></g>
<g><path style="opacity:0.01" fill="#b9b0ab" d="M 64.5,83.5 C 64.5,83.1667 64.5,82.8333 64.5,82.5C 65.1667,82.5 65.8333,82.5 66.5,82.5C 66.1583,83.3382 65.4916,83.6716 64.5,83.5 Z"/></g>
<g><path style="opacity:0.008" fill="#bfb7b0" d="M 31.5,83.5 C 31.1034,84.525 30.4368,84.6917 29.5,84C 30.0944,83.5357 30.7611,83.369 31.5,83.5 Z"/></g>
<g><path style="opacity:0.004" fill="#bcb3af" d="M 62.5,83.5 C 63.1667,83.5 63.8333,83.5 64.5,83.5C 63.8333,84.8333 63.1667,84.8333 62.5,83.5 Z"/></g>
<g><path style="opacity:0.008" fill="#bfb8b4" d="M 59.5,85.5 C 59.5,85.1667 59.5,84.8333 59.5,84.5C 62.1667,84.8333 62.1667,85.1667 59.5,85.5 Z"/></g>
<g><path style="opacity:0.016" fill="#c4bdb9" d="M 37.5,85.5 C 36.7494,86.5735 35.7494,86.7401 34.5,86C 35.448,85.5172 36.448,85.3505 37.5,85.5 Z"/></g>
<g><path style="opacity:0.016" fill="#c4bdba" d="M 56.5,85.5 C 57.5,85.5 58.5,85.5 59.5,85.5C 58.5,86.8333 57.5,86.8333 56.5,85.5 Z"/></g>
<g><path style="opacity:0.008" fill="#cac4c1" d="M 38.5,87.5 C 39.9464,86.3871 41.6131,86.2204 43.5,87C 41.8659,87.4935 40.1992,87.6602 38.5,87.5 Z"/></g>
<g><path style="opacity:0.008" fill="#c9c4c1" d="M 50.5,87.5 C 51.9464,86.3871 53.6131,86.2204 55.5,87C 53.8659,87.4935 52.1992,87.6602 50.5,87.5 Z"/></g>
</svg>
